<mxfile host="app.diagrams.net" modified="2023-07-31T23:49:50.479Z" agent="Mozilla/5.0 (Macintosh; Intel Mac OS X 10_15_7) AppleWebKit/605.1.15 (KHTML, like Gecko) Version/15.6.1 Safari/605.1.15" version="21.6.6" etag="zocHevNqWYFUzJCbcW4q" type="github">
  <diagram name="Page-1" id="a2SZ6WP-wNjvYIx0AkOO">
    <mxGraphModel>
      <root>
        <mxCell id="0" />
        <mxCell id="1" parent="0" />
      </root>
    </mxGraphModel>
  </diagram>
</mxfile>
